<svg width="60" height="60" viewBox="0 0 80 80" fill="none" xmlns="http://www.w3.org/2000/svg">
<g id="copy-image_9291651 1" clip-path="url(#clip0_248_401)">
<path id="Vector" d="M30 25.0001C30 22.2334 32.2333 20.0001 35 20.0001C37.7667 20.0001 40 22.2334 40 25.0001C40 27.7667 37.7667 30.0001 35 30.0001C32.2333 30.0001 30 27.7667 30 25.0001ZM80 23.3334V43.3334C80 52.5334 72.5333 60.0001 63.3333 60.0001H33.3333C24.1333 60.0001 16.6667 52.5334 16.6667 43.3334V23.3334C16.6667 14.1334 24.1333 6.66675 33.3333 6.66675H63.3333C72.5333 6.66675 80 14.1334 80 23.3334ZM23.3333 43.3334C23.3333 45.9001 24.3 48.2334 25.9 50.0334L43.3667 32.5668C46.6333 29.3001 52.3333 29.3001 55.6 32.5668L59.0667 36.0334C59.8333 36.8001 61.1333 36.8001 61.9 36.0334L73.3333 24.6001V23.3334C73.3333 17.8334 68.8333 13.3334 63.3333 13.3334H33.3333C27.8333 13.3334 23.3333 17.8334 23.3333 23.3334V43.3334ZM73.3333 43.3334V34.0334L66.6 40.7667C63.3333 44.0334 57.6333 44.0334 54.3667 40.7667L50.9 37.3001C50.1333 36.5334 48.8667 36.5334 48.0667 37.3001L32.1 53.2668C32.5 53.3334 32.9 53.3334 33.3333 53.3334H63.3333C68.8333 53.3334 73.3333 48.8334 73.3333 43.3334ZM56.6667 66.6668H16.6667C11.1667 66.6668 6.66667 62.1668 6.66667 56.6668V36.6667C6.66667 34.2001 7.56667 31.8334 9.23333 30.0001C10.4667 28.6334 10.3333 26.5334 8.96667 25.3001C7.6 24.0667 5.5 24.2001 4.26667 25.5667C1.53333 28.6334 0 32.5667 0 36.7001V56.7001C0 65.9001 7.46667 73.3668 16.6667 73.3668H56.6667C58.5 73.3668 60 71.8668 60 70.0334C60 68.2001 58.5 66.7001 56.6667 66.7001V66.6668Z" fill="white"/>
</g>
<defs>
<clipPath id="clip0_248_401">
<rect width="80" height="80" fill="white"/>
</clipPath>
</defs>
</svg>
