<svg width="60" height="50" viewBox="0 0 78 68" fill="none" xmlns="http://www.w3.org/2000/svg">
<path id="Union" fill-rule="evenodd" clip-rule="evenodd" d="M11.0884 5.18301H20.7313C25.796 5.18301 28.5486 8.12558 33.5032 13.422C33.8548 13.7978 34.2174 14.1854 34.5928 14.5848H62.0748C65.2087 14.7856 71.6935 17.0919 72.5614 24.7097V57.4953C73.9275 57.214 76.8524 55.6873 77.6239 51.8301V15.6696C77.6239 13.741 75.6712 10.0526 71.2355 9.76335H42.3071L34.2312 1.80803C33.7491 1.20535 32.375 0 30.7357 0H15.5482C13.8608 0.522319 10.2929 2.29017 9.52148 5.18301H11.0884ZM0 16.5283V60.6441C0 62.5727 1.30178 66.6709 6.5089 67.6352H61.4729C63.5622 67.4745 67.7408 65.8513 67.7408 60.6441V25.93C67.4997 23.7604 65.9086 19.4211 61.4729 19.4211H32.7856L24.3481 11.7069C23.866 10.8229 21.9374 9.1033 18.0803 9.29615H6.5089C4.33927 9.69794 0 11.7069 0 16.5283Z" fill="white"/>
</svg>
