<svg width="62" height="381" viewBox="0 0 62 381" fill="none" xmlns="http://www.w3.org/2000/svg">
<path d="M58.4224 317.578L1.49805 374.502V6.74099V2.99597L58.4224 65.9123V317.578Z" fill="#1B1D29" stroke="#1B1D29"/>
<path fill-rule="evenodd" clip-rule="evenodd" d="M1.17575 6.20103L57.4896 66.0452C57.9224 66.5046 58.1634 67.112 58.1634 67.7432V317.684C58.1634 318.34 57.9028 318.97 57.4389 319.434L1 375.93V380.132L59.5413 321.535C60.5619 320.513 61.1352 319.128 61.1352 317.684V67.7432C61.1352 66.3546 60.605 65.0183 59.6528 64.0075L1.17658 2L1.17575 6.20103ZM15.228 52.5954C15.1454 53.6463 14.3125 54.4237 13.3677 54.3318C12.4229 54.2398 11.7241 53.3134 11.8067 52.2625C11.8894 51.2116 12.7223 50.4342 13.667 50.5262C14.6118 50.6181 15.3107 51.5446 15.228 52.5954ZM15.2279 80.9543C15.1452 82.0052 14.3123 82.7826 13.3676 82.6906C12.4228 82.5987 11.7239 81.6722 11.8066 80.6213C11.8893 79.5704 12.7221 78.7931 13.6669 78.885C14.6117 78.9769 15.3105 79.9034 15.2279 80.9543ZM29.3336 70.9302C30.2783 71.0221 31.1112 70.2447 31.1939 69.1938C31.2765 68.1429 30.5776 67.2165 29.6329 67.1245C28.6881 67.0326 27.8552 67.81 27.7726 68.8609C27.6899 69.9118 28.3888 70.8382 29.3336 70.9302ZM42.8491 89.2514C42.7664 90.3023 41.9336 91.0797 40.9888 90.9878C40.044 90.8958 39.3452 89.9694 39.4278 88.9185C39.5105 87.8676 40.3434 87.0902 41.2881 87.1821C42.2329 87.2741 42.9318 88.2005 42.8491 89.2514ZM13.3676 111.046C14.3123 111.138 15.1452 110.361 15.2279 109.31C15.3105 108.259 14.6117 107.332 13.6669 107.24C12.7221 107.148 11.8893 107.926 11.8066 108.977C11.7239 110.028 12.4228 110.954 13.3676 111.046ZM27.9802 91.4915C27.8975 92.5423 27.0646 93.3197 26.1199 93.2278C25.1751 93.1358 24.4762 92.2094 24.5589 91.1585C24.6415 90.1076 25.4744 89.3302 26.4192 89.4222C27.3639 89.5141 28.0628 90.4406 27.9802 91.4915ZM40.983 115.773C41.9278 115.865 42.7606 115.088 42.8433 114.037C42.926 112.986 42.2271 112.059 41.2823 111.967C40.3376 111.875 39.5047 112.653 39.422 113.704C39.3394 114.755 40.0382 115.681 40.983 115.773ZM15.2221 137.67C15.1394 138.721 14.3065 139.498 13.3618 139.406C12.417 139.314 11.7181 138.388 11.8008 137.337C11.8835 136.286 12.7163 135.509 13.6611 135.601C14.6059 135.692 15.3047 136.619 15.2221 137.67ZM26.1122 115.773C27.057 115.865 27.8899 115.088 27.9725 114.037C28.0552 112.986 27.3563 112.059 26.4116 111.967C25.4668 111.876 24.6339 112.653 24.5513 113.704C24.4686 114.755 25.1675 115.681 26.1122 115.773ZM42.8434 142.396C42.7608 143.447 41.9279 144.225 40.9831 144.133C40.0384 144.041 39.3395 143.114 39.4221 142.063C39.5048 141.012 40.3377 140.235 41.2824 140.327C42.2272 140.419 42.9261 141.345 42.8434 142.396ZM13.3619 167.764C14.3067 167.856 15.1395 167.078 15.2222 166.027C15.3049 164.976 14.606 164.05 13.6612 163.958C12.7165 163.866 11.8836 164.643 11.8009 165.694C11.7183 166.745 12.4171 167.672 13.3619 167.764ZM27.9725 139.917C27.8899 140.968 27.057 141.745 26.1122 141.653C25.1675 141.561 24.4686 140.635 24.5513 139.584C24.6339 138.533 25.4668 137.755 26.4116 137.847C27.3563 137.939 28.0552 138.866 27.9725 139.917ZM40.987 172.489C41.9317 172.581 42.7646 171.804 42.8473 170.753C42.9299 169.702 42.2311 168.775 41.2863 168.683C40.3416 168.591 39.5087 169.369 39.426 170.42C39.3434 171.471 40.0422 172.397 40.987 172.489ZM15.2222 194.384C15.1395 195.435 14.3067 196.212 13.3619 196.12C12.4171 196.028 11.7183 195.102 11.8009 194.051C11.8836 193 12.7165 192.223 13.6612 192.315C14.606 192.407 15.3049 193.333 15.2222 194.384ZM26.1161 168.916C27.0609 169.008 27.8938 168.231 27.9764 167.18C28.0591 166.129 27.3602 165.203 26.4154 165.111C25.4707 165.019 24.6378 165.796 24.5551 166.847C24.4725 167.898 25.1713 168.824 26.1161 168.916ZM42.8434 199.111C42.7608 200.162 41.9279 200.939 40.9831 200.847C40.0384 200.755 39.3395 199.829 39.4221 198.778C39.5048 197.727 40.3377 196.949 41.2824 197.041C42.2272 197.133 42.9261 198.06 42.8434 199.111ZM13.3637 224.478C14.3085 224.57 15.1414 223.793 15.224 222.742C15.3067 221.691 14.6078 220.764 13.663 220.673C12.7183 220.581 11.8854 221.358 11.8027 222.409C11.7201 223.46 12.419 224.386 13.3637 224.478ZM27.9764 195.538C27.8938 196.589 27.0609 197.366 26.1161 197.274C25.1713 197.182 24.4725 196.256 24.5551 195.205C24.6378 194.154 25.4707 193.377 26.4154 193.469C27.3602 193.56 28.0591 194.487 27.9764 195.538ZM40.987 226.841C41.9317 226.933 42.7646 226.156 42.8473 225.105C42.9299 224.054 42.2311 223.128 41.2863 223.036C40.3416 222.944 39.5087 223.721 39.426 224.772C39.3434 225.823 40.0422 226.749 40.987 226.841ZM15.2279 251.1C15.1452 252.151 14.3123 252.928 13.3676 252.836C12.4228 252.744 11.7239 251.818 11.8066 250.767C11.8893 249.716 12.7221 248.939 13.6669 249.031C14.6117 249.123 15.3105 250.049 15.2279 251.1ZM26.1161 226.841C27.0609 226.933 27.8938 226.156 27.9764 225.105C28.0591 224.054 27.3602 223.128 26.4154 223.036C25.4707 222.944 24.6378 223.721 24.5551 224.772C24.4725 225.823 25.1713 226.749 26.1161 226.841ZM42.8473 251.1C42.7646 252.151 41.9317 252.928 40.987 252.836C40.0422 252.744 39.3434 251.818 39.426 250.767C39.5087 249.716 40.3416 248.939 41.2863 249.031C42.2311 249.123 42.9299 250.049 42.8473 251.1ZM13.3619 281.194C14.3067 281.286 15.1395 280.508 15.2222 279.458C15.3049 278.407 14.606 277.48 13.6612 277.388C12.7165 277.296 11.8836 278.074 11.8009 279.125C11.7183 280.175 12.4171 281.102 13.3619 281.194ZM27.9725 253.345C27.8899 254.396 27.057 255.173 26.1122 255.081C25.1675 254.989 24.4686 254.063 24.5513 253.012C24.6339 251.961 25.4668 251.184 26.4116 251.276C27.3563 251.368 28.0552 252.294 27.9725 253.345ZM40.987 281.194C41.9317 281.286 42.7646 280.508 42.8473 279.457C42.9299 278.406 42.2311 277.48 41.2863 277.388C40.3416 277.296 39.5087 278.073 39.426 279.124C39.3434 280.175 40.0422 281.102 40.987 281.194ZM15.2222 307.815C15.1395 308.866 14.3067 309.643 13.3619 309.551C12.4171 309.459 11.7183 308.533 11.8009 307.482C11.8836 306.431 12.7165 305.654 13.6612 305.746C14.606 305.838 15.3049 306.764 15.2222 307.815ZM26.1161 285.26C27.0609 285.352 27.8938 284.574 27.9764 283.523C28.0591 282.472 27.3602 281.546 26.4154 281.454C25.4707 281.362 24.6378 282.139 24.5551 283.19C24.4725 284.241 25.1713 285.168 26.1161 285.26ZM41.4852 304.792C41.4025 305.842 40.5696 306.62 39.6249 306.528C38.6801 306.436 37.9813 305.509 38.0639 304.459C38.1466 303.408 38.9795 302.63 39.9242 302.722C40.869 302.814 41.5678 303.741 41.4852 304.792ZM13.3619 337.91C14.3067 338.002 15.1395 337.225 15.2222 336.174C15.3049 335.123 14.606 334.197 13.6612 334.105C12.7165 334.013 11.8836 334.79 11.8009 335.841C11.7183 336.892 12.4171 337.818 13.3619 337.91ZM29.3442 316.607C29.2615 317.658 28.4287 318.435 27.4839 318.343C26.5391 318.252 25.8403 317.325 25.9229 316.274C26.0056 315.223 26.8385 314.446 27.7832 314.538C28.728 314.63 29.4268 315.556 29.3442 316.607Z" fill="#BB25D8"/>
</svg>
