<svg width="62" height="379" viewBox="0 0 62 379" fill="none" xmlns="http://www.w3.org/2000/svg">
<path d="M58.4224 317.578L1.49805 374.502V6.74099V2.99597L58.4224 65.9123V317.578Z" fill="#D9D9D9"/>
<path d="M58.4224 317.578L1.49805 374.502V6.74099V2.99597L58.4224 65.9123V317.578Z" fill="#1B1D29"/>
<path fill-rule="evenodd" clip-rule="evenodd" d="M0.205078 5.22908L57.4899 66.0451C57.9227 66.5046 58.1637 67.1119 58.1637 67.7432V317.684C58.1637 318.34 57.9032 318.97 57.4392 319.434L0.235498 376.694L2.33794 378.794L59.5417 321.534C60.5623 320.513 61.1356 319.128 61.1356 317.684V67.7432C61.1356 66.3545 60.6054 65.0183 59.6532 64.0074L2.36836 3.19141L0.205078 5.22908ZM15.2284 52.5954C15.1457 53.6463 14.3128 54.4237 13.3681 54.3317C12.4233 54.2398 11.7244 53.3133 11.8071 52.2624C11.8898 51.2115 12.7226 50.4341 13.6674 50.5261C14.6122 50.618 15.311 51.5445 15.2284 52.5954ZM15.2283 80.9542C15.1456 82.0051 14.3127 82.7825 13.368 82.6905C12.4232 82.5986 11.7243 81.6721 11.807 80.6213C11.8896 79.5704 12.7225 78.793 13.6673 78.8849C14.612 78.9769 15.3109 79.9033 15.2283 80.9542ZM29.3339 70.9301C30.2787 71.022 31.1116 70.2447 31.1942 69.1938C31.2769 68.1429 30.578 67.2164 29.6333 67.1245C28.6885 67.0325 27.8556 67.8099 27.773 68.8608C27.6903 69.9117 28.3892 70.8382 29.3339 70.9301ZM42.8495 89.2514C42.7668 90.3023 41.9339 91.0796 40.9892 90.9877C40.0444 90.8958 39.3455 89.9693 39.4282 88.9184C39.5108 87.8675 40.3437 87.0901 41.2885 87.1821C42.2333 87.274 42.9321 88.2005 42.8495 89.2514ZM13.368 111.046C14.3127 111.138 15.1456 110.36 15.2283 109.31C15.3109 108.259 14.612 107.332 13.6673 107.24C12.7225 107.148 11.8896 107.926 11.807 108.977C11.7243 110.028 12.4232 110.954 13.368 111.046ZM27.9805 91.4914C27.8979 92.5423 27.065 93.3197 26.1202 93.2277C25.1755 93.1358 24.4766 92.2093 24.5593 91.1584C24.6419 90.1075 25.4748 89.3301 26.4196 89.4221C27.3643 89.514 28.0632 90.4405 27.9805 91.4914ZM40.9834 115.773C41.9281 115.865 42.761 115.088 42.8437 114.037C42.9263 112.986 42.2275 112.059 41.2827 111.967C40.3379 111.875 39.505 112.653 39.4224 113.704C39.3397 114.755 40.0386 115.681 40.9834 115.773ZM15.2225 137.67C15.1398 138.721 14.3069 139.498 13.3622 139.406C12.4174 139.314 11.7185 138.388 11.8012 137.337C11.8838 136.286 12.7167 135.509 13.6615 135.6C14.6062 135.692 15.3051 136.619 15.2225 137.67ZM26.1126 115.773C27.0574 115.865 27.8903 115.088 27.9729 114.037C28.0556 112.986 27.3567 112.059 26.4119 111.967C25.4672 111.875 24.6343 112.653 24.5516 113.704C24.469 114.755 25.1679 115.681 26.1126 115.773ZM42.8438 142.396C42.7611 143.447 41.9283 144.224 40.9835 144.132C40.0387 144.041 39.3399 143.114 39.4225 142.063C39.5052 141.012 40.3381 140.235 41.2828 140.327C42.2276 140.419 42.9264 141.345 42.8438 142.396ZM13.3623 167.764C14.307 167.855 15.1399 167.078 15.2226 166.027C15.3052 164.976 14.6064 164.05 13.6616 163.958C12.7168 163.866 11.884 164.643 11.8013 165.694C11.7186 166.745 12.4175 167.672 13.3623 167.764ZM27.9729 139.917C27.8903 140.967 27.0574 141.745 26.1126 141.653C25.1679 141.561 24.469 140.635 24.5516 139.584C24.6343 138.533 25.4672 137.755 26.4119 137.847C27.3567 137.939 28.0556 138.866 27.9729 139.917ZM40.9874 172.489C41.9321 172.581 42.765 171.803 42.8477 170.753C42.9303 169.702 42.2314 168.775 41.2867 168.683C40.3419 168.591 39.509 169.369 39.4264 170.42C39.3437 171.471 40.0426 172.397 40.9874 172.489ZM15.2226 194.384C15.1399 195.435 14.307 196.212 13.3623 196.12C12.4175 196.028 11.7186 195.102 11.8013 194.051C11.884 193 12.7168 192.223 13.6616 192.315C14.6064 192.407 15.3052 193.333 15.2226 194.384ZM26.1165 168.916C27.0612 169.008 27.8941 168.231 27.9768 167.18C28.0594 166.129 27.3606 165.203 26.4158 165.111C25.471 165.019 24.6382 165.796 24.5555 166.847C24.4728 167.898 25.1717 168.824 26.1165 168.916ZM42.8438 199.111C42.7611 200.162 41.9283 200.939 40.9835 200.847C40.0387 200.755 39.3399 199.829 39.4225 198.778C39.5052 197.727 40.3381 196.949 41.2828 197.041C42.2276 197.133 42.9264 198.06 42.8438 199.111ZM13.3641 224.478C14.3088 224.57 15.1417 223.793 15.2244 222.742C15.307 221.691 14.6082 220.764 13.6634 220.672C12.7186 220.581 11.8858 221.358 11.8031 222.409C11.7205 223.46 12.4193 224.386 13.3641 224.478ZM27.9768 195.538C27.8941 196.589 27.0612 197.366 26.1165 197.274C25.1717 197.182 24.4728 196.256 24.5555 195.205C24.6382 194.154 25.471 193.377 26.4158 193.468C27.3606 193.56 28.0594 194.487 27.9768 195.538ZM40.9874 226.841C41.9321 226.933 42.765 226.156 42.8477 225.105C42.9303 224.054 42.2314 223.128 41.2867 223.036C40.3419 222.944 39.509 223.721 39.4264 224.772C39.3437 225.823 40.0426 226.749 40.9874 226.841ZM15.2283 251.1C15.1456 252.151 14.3127 252.928 13.368 252.836C12.4232 252.744 11.7243 251.818 11.807 250.767C11.8896 249.716 12.7225 248.939 13.6673 249.031C14.612 249.123 15.3109 250.049 15.2283 251.1ZM26.1165 226.841C27.0612 226.933 27.8941 226.156 27.9768 225.105C28.0594 224.054 27.3606 223.128 26.4158 223.036C25.471 222.944 24.6382 223.721 24.5555 224.772C24.4728 225.823 25.1717 226.749 26.1165 226.841ZM42.8477 251.1C42.765 252.151 41.9321 252.928 40.9874 252.836C40.0426 252.744 39.3437 251.818 39.4264 250.767C39.509 249.716 40.3419 248.939 41.2867 249.031C42.2314 249.123 42.9303 250.049 42.8477 251.1ZM13.3623 281.194C14.307 281.286 15.1399 280.508 15.2226 279.457C15.3052 278.407 14.6064 277.48 13.6616 277.388C12.7168 277.296 11.884 278.074 11.8013 279.124C11.7186 280.175 12.4175 281.102 13.3623 281.194ZM27.9729 253.345C27.8903 254.396 27.0574 255.173 26.1126 255.081C25.1679 254.989 24.469 254.063 24.5516 253.012C24.6343 251.961 25.4672 251.184 26.4119 251.276C27.3567 251.368 28.0556 252.294 27.9729 253.345ZM40.9874 281.194C41.9321 281.285 42.765 280.508 42.8477 279.457C42.9303 278.406 42.2314 277.48 41.2867 277.388C40.3419 277.296 39.509 278.073 39.4264 279.124C39.3437 280.175 40.0426 281.102 40.9874 281.194ZM15.2226 307.815C15.1399 308.866 14.307 309.643 13.3623 309.551C12.4175 309.459 11.7186 308.533 11.8013 307.482C11.884 306.431 12.7168 305.654 13.6616 305.746C14.6064 305.838 15.3052 306.764 15.2226 307.815ZM26.1165 285.26C27.0612 285.352 27.8941 284.574 27.9768 283.523C28.0594 282.472 27.3606 281.546 26.4158 281.454C25.471 281.362 24.6382 282.139 24.5555 283.19C24.4728 284.241 25.1717 285.168 26.1165 285.26ZM41.4856 304.791C41.4029 305.842 40.57 306.62 39.6253 306.528C38.6805 306.436 37.9816 305.509 38.0643 304.459C38.1469 303.408 38.9798 302.63 39.9246 302.722C40.8693 302.814 41.5682 303.741 41.4856 304.791ZM13.3623 337.91C14.307 338.002 15.1399 337.225 15.2226 336.174C15.3052 335.123 14.6064 334.197 13.6616 334.105C12.7168 334.013 11.884 334.79 11.8013 335.841C11.7186 336.892 12.4175 337.818 13.3623 337.91ZM29.3446 316.607C29.2619 317.658 28.429 318.435 27.4843 318.343C26.5395 318.251 25.8406 317.325 25.9233 316.274C26.0059 315.223 26.8388 314.446 27.7836 314.538C28.7283 314.63 29.4272 315.556 29.3446 316.607Z" fill="#BB25D8"/>
</svg>
