<svg width="63" height="383" viewBox="0 0 63 383" fill="none" xmlns="http://www.w3.org/2000/svg">
<path d="M59.4224 318.578L2.49805 375.502V7.74099V3.99597L59.4224 66.9123V318.578Z" fill="#1B1D29"/>
<path fill-rule="evenodd" clip-rule="evenodd" d="M1 0L61 67.0681V319.319L1 380V0ZM4.93931 10.3415V370.382L57.0607 317.669V68.6029L4.93931 10.3415Z" fill="#1B1D29"/>
<path fill-rule="evenodd" clip-rule="evenodd" d="M1.00113 6.02528L58.4907 67.0452C58.9235 67.5046 59.1645 68.112 59.1645 68.7432V318.684C59.1645 319.34 58.9039 319.97 58.44 320.434L0.931641 378V382.201L60.5424 322.535C61.5631 321.513 62.1364 320.128 62.1364 318.684V68.7432C62.1364 67.3546 61.6061 66.0183 60.654 65.0075L1.00113 0V6.02528ZM16.2291 53.5954C16.1465 54.6463 15.3136 55.4237 14.3688 55.3318C13.4241 55.2398 12.7252 54.3134 12.8079 53.2625C12.8905 52.2116 13.7234 51.4342 14.6682 51.5262C15.6129 51.6181 16.3118 52.5446 16.2291 53.5954ZM16.229 81.9543C16.1464 83.0052 15.3135 83.7826 14.3687 83.6906C13.424 83.5987 12.7251 82.6722 12.8077 81.6213C12.8904 80.5704 13.7233 79.7931 14.668 79.885C15.6128 79.9769 16.3117 80.9034 16.229 81.9543ZM30.3347 71.9302C31.2795 72.0221 32.1123 71.2447 32.195 70.1938C32.2776 69.1429 31.5788 68.2165 30.634 68.1245C29.6893 68.0326 28.8564 68.81 28.7737 69.8609C28.6911 70.9118 29.3899 71.8382 30.3347 71.9302ZM43.8502 90.2514C43.7676 91.3023 42.9347 92.0797 41.9899 91.9878C41.0452 91.8958 40.3463 90.9694 40.4289 89.9185C40.5116 88.8676 41.3445 88.0902 42.2893 88.1821C43.234 88.2741 43.9329 89.2005 43.8502 90.2514ZM14.3687 112.046C15.3135 112.138 16.1464 111.361 16.229 110.31C16.3117 109.259 15.6128 108.332 14.668 108.24C13.7233 108.148 12.8904 108.926 12.8077 109.977C12.7251 111.028 13.424 111.954 14.3687 112.046ZM28.9813 92.4915C28.8986 93.5423 28.0657 94.3197 27.121 94.2278C26.1762 94.1358 25.4773 93.2094 25.56 92.1585C25.6427 91.1076 26.4755 90.3302 27.4203 90.4222C28.3651 90.5141 29.0639 91.4406 28.9813 92.4915ZM41.9841 116.773C42.9289 116.865 43.7618 116.088 43.8444 115.037C43.9271 113.986 43.2282 113.059 42.2834 112.967C41.3387 112.875 40.5058 113.653 40.4231 114.704C40.3405 115.755 41.0394 116.681 41.9841 116.773ZM16.2232 138.67C16.1406 139.721 15.3077 140.498 14.3629 140.406C13.4181 140.314 12.7193 139.388 12.8019 138.337C12.8846 137.286 13.7175 136.509 14.6622 136.601C15.607 136.692 16.3059 137.619 16.2232 138.67ZM27.1134 116.773C28.0581 116.865 28.891 116.088 28.9737 115.037C29.0563 113.986 28.3575 113.059 27.4127 112.967C26.4679 112.876 25.635 113.653 25.5524 114.704C25.4697 115.755 26.1686 116.681 27.1134 116.773ZM43.8445 143.396C43.7619 144.447 42.929 145.225 41.9842 145.133C41.0395 145.041 40.3406 144.114 40.4233 143.063C40.5059 142.012 41.3388 141.235 42.2836 141.327C43.2283 141.419 43.9272 142.345 43.8445 143.396ZM14.363 168.764C15.3078 168.856 16.1407 168.078 16.2233 167.027C16.306 165.976 15.6071 165.05 14.6624 164.958C13.7176 164.866 12.8847 165.643 12.8021 166.694C12.7194 167.745 13.4183 168.672 14.363 168.764ZM28.9737 140.917C28.891 141.968 28.0581 142.745 27.1134 142.653C26.1686 142.561 25.4697 141.635 25.5524 140.584C25.635 139.533 26.4679 138.755 27.4127 138.847C28.3575 138.939 29.0563 139.866 28.9737 140.917ZM41.9881 173.489C42.9329 173.581 43.7658 172.804 43.8484 171.753C43.9311 170.702 43.2322 169.775 42.2874 169.683C41.3427 169.591 40.5098 170.369 40.4271 171.42C40.3445 172.471 41.0434 173.397 41.9881 173.489ZM16.2233 195.384C16.1407 196.435 15.3078 197.212 14.363 197.12C13.4183 197.028 12.7194 196.102 12.8021 195.051C12.8847 194 13.7176 193.223 14.6624 193.315C15.6071 193.407 16.306 194.333 16.2233 195.384ZM27.1172 169.916C28.062 170.008 28.8949 169.231 28.9775 168.18C29.0602 167.129 28.3613 166.203 27.4166 166.111C26.4718 166.019 25.6389 166.796 25.5563 167.847C25.4736 168.898 26.1725 169.824 27.1172 169.916ZM43.8445 200.111C43.7619 201.162 42.929 201.939 41.9842 201.847C41.0395 201.755 40.3406 200.829 40.4233 199.778C40.5059 198.727 41.3388 197.949 42.2836 198.041C43.2283 198.133 43.9272 199.06 43.8445 200.111ZM14.3648 225.478C15.3096 225.57 16.1425 224.793 16.2251 223.742C16.3078 222.691 15.6089 221.764 14.6642 221.673C13.7194 221.581 12.8865 222.358 12.8039 223.409C12.7212 224.46 13.4201 225.386 14.3648 225.478ZM28.9775 196.538C28.8949 197.589 28.062 198.366 27.1172 198.274C26.1725 198.182 25.4736 197.256 25.5563 196.205C25.6389 195.154 26.4718 194.377 27.4166 194.469C28.3613 194.56 29.0602 195.487 28.9775 196.538ZM41.9881 227.841C42.9329 227.933 43.7658 227.156 43.8484 226.105C43.9311 225.054 43.2322 224.128 42.2874 224.036C41.3427 223.944 40.5098 224.721 40.4271 225.772C40.3445 226.823 41.0434 227.749 41.9881 227.841ZM16.229 252.1C16.1464 253.151 15.3135 253.928 14.3687 253.836C13.424 253.744 12.7251 252.818 12.8077 251.767C12.8904 250.716 13.7233 249.939 14.668 250.031C15.6128 250.123 16.3117 251.049 16.229 252.1ZM27.1172 227.841C28.062 227.933 28.8949 227.156 28.9775 226.105C29.0602 225.054 28.3613 224.128 27.4166 224.036C26.4718 223.944 25.6389 224.721 25.5563 225.772C25.4736 226.823 26.1725 227.749 27.1172 227.841ZM43.8484 252.1C43.7658 253.151 42.9329 253.928 41.9881 253.836C41.0434 253.744 40.3445 252.818 40.4271 251.767C40.5098 250.716 41.3427 249.939 42.2874 250.031C43.2322 250.123 43.9311 251.049 43.8484 252.1ZM14.363 282.194C15.3078 282.286 16.1407 281.508 16.2233 280.458C16.306 279.407 15.6071 278.48 14.6624 278.388C13.7176 278.296 12.8847 279.074 12.8021 280.125C12.7194 281.175 13.4183 282.102 14.363 282.194ZM28.9737 254.345C28.891 255.396 28.0581 256.173 27.1134 256.081C26.1686 255.989 25.4697 255.063 25.5524 254.012C25.635 252.961 26.4679 252.184 27.4127 252.276C28.3575 252.368 29.0563 253.294 28.9737 254.345ZM41.9881 282.194C42.9329 282.286 43.7658 281.508 43.8484 280.457C43.9311 279.406 43.2322 278.48 42.2874 278.388C41.3427 278.296 40.5098 279.073 40.4271 280.124C40.3445 281.175 41.0434 282.102 41.9881 282.194ZM16.2233 308.815C16.1407 309.866 15.3078 310.643 14.363 310.551C13.4183 310.459 12.7194 309.533 12.8021 308.482C12.8847 307.431 13.7176 306.654 14.6624 306.746C15.6071 306.838 16.306 307.764 16.2233 308.815ZM27.1172 286.26C28.062 286.352 28.8949 285.574 28.9775 284.523C29.0602 283.472 28.3613 282.546 27.4166 282.454C26.4718 282.362 25.6389 283.139 25.5563 284.19C25.4736 285.241 26.1725 286.168 27.1172 286.26ZM42.4863 305.792C42.4037 306.842 41.5708 307.62 40.626 307.528C39.6813 307.436 38.9824 306.509 39.065 305.459C39.1477 304.408 39.9806 303.63 40.9253 303.722C41.8701 303.814 42.569 304.741 42.4863 305.792ZM14.363 338.91C15.3078 339.002 16.1407 338.225 16.2233 337.174C16.306 336.123 15.6071 335.197 14.6624 335.105C13.7176 335.013 12.8847 335.79 12.8021 336.841C12.7194 337.892 13.4183 338.818 14.363 338.91ZM30.3453 317.607C30.2627 318.658 29.4298 319.435 28.485 319.343C27.5403 319.252 26.8414 318.325 26.924 317.274C27.0067 316.223 27.8396 315.446 28.7843 315.538C29.7291 315.63 30.428 316.556 30.3453 317.607Z" fill="#BB25D8"/>
</svg>
