<svg width="50" height="50" viewBox="0 0 76 80" fill="none" xmlns="http://www.w3.org/2000/svg">
<path id="Union" fill-rule="evenodd" clip-rule="evenodd" d="M58.0834 31.7808C52.3157 30.2779 49.4109 24.4227 48.6795 21.683H10.6719C8.35233 21.683 7.45892 19.5434 7.30219 18.4736V2.58317C7.80377 0.579249 9.39198 0.0260863 10.1234 0H64.9013C67.0955 0.375738 67.8008 2.13959 67.8792 2.97456V17.7691C67.6284 20.3366 65.4237 21.4481 64.3527 21.683H58.632C57.5662 24.8141 57.8222 29.7195 58.0834 31.7808ZM19.684 3.83562L21.0388 8.00044L25.4229 8.00045L21.8761 10.5745L23.2309 14.7393L19.684 12.1653L16.1372 14.7393L17.492 10.5745L13.9452 8.00045L18.3293 8.00044L19.684 3.83562ZM37.5515 3.83562L38.9062 8.00044L43.2904 8.00045L39.7435 10.5745L41.0983 14.7393L37.5515 12.1653L34.0047 14.7393L35.3595 10.5745L31.8126 8.00045L36.1968 8.00044L37.5515 3.83562ZM56.7737 8.00044L55.419 3.83562L54.0642 8.00044L49.6801 8.00045L53.2269 10.5745L51.8721 14.7393L55.419 12.1653L58.9658 14.7393L57.611 10.5745L61.1578 8.00045L56.7737 8.00044ZM49.6214 44.0704C49.6214 50.6417 44.2884 55.9687 37.7098 55.9687C31.1311 55.9687 25.7981 50.6417 25.7981 44.0704C25.7981 37.4992 31.1311 32.1722 37.7098 32.1722C44.2884 32.1722 49.6214 37.4992 49.6214 44.0704ZM27.9924 57.2211C17.2315 62.2928 17.9757 73.2203 18.3909 79.3153C18.4051 79.5232 18.4188 79.7255 18.4318 79.9217H57.1445C58.0066 63.953 53.6181 60.6654 47.1137 57.2211C39.8413 62.2935 31.2837 59.8043 27.9924 57.2211ZM6.28343 48.8454C6.03265 59.4912 14.6425 60.1174 18.9787 59.0998C19.6057 57.3464 22.6358 55.1337 24.0725 54.2466L24.386 53.1507C21.8783 50.4579 21.3558 45.349 21.4081 43.1311C12.7878 37.4168 7.17156 44.8793 6.28343 48.8454ZM15.609 63.8748C12.349 64.3131 9.07852 62.544 7.85075 61.6047C-0.113886 65.1811 -0.0388869 73.6575 0.00756643 78.9115C0.0109337 79.2923 0.014148 79.6562 0.014148 80H13.8849C13.5088 70.7319 14.8776 65.3881 15.609 63.8748ZM56.4236 59.0998C60.7598 60.1174 69.3697 59.4912 69.1189 48.8454C68.2307 44.8793 62.6145 37.4168 53.9942 43.1311C54.0465 45.349 53.524 50.4579 51.0163 53.1507L51.3298 54.2466C52.7665 55.1337 55.7966 57.3464 56.4236 59.0998ZM67.5515 61.6047C66.3238 62.544 63.0533 64.3131 59.7933 63.8748C60.5247 65.3881 61.8935 70.7319 61.5174 80H75.3882C75.3882 79.8008 75.3892 79.5949 75.3908 79.3829L75.3947 78.9115C75.4412 73.6575 75.5162 65.1811 67.5515 61.6047Z" fill="white"/>
</svg>
